<?xml version="1.0" encoding="UTF-8"?>
<svg id="Layer_1" data-name="Layer 1" xmlns="http://www.w3.org/2000/svg" viewBox="0 0 288 288.04">
  <defs>
    <style>
      .cls-1 {
        fill: #fff;
        fill-rule: evenodd;
      }
    </style>
  </defs>
  <path class="cls-1" d="M288,14.81c-.67-1.06-1.36-2.12-2.01-3.2-.22-.36-.47-.52-.9-.53-5.48-.13-10.97-.29-16.45-.43-.1,0-.2.03-.39.06.09.23.13.45.24.63,2.8,4.56,5.6,9.11,8.39,13.67.28.46.61.66,1.15.67,3.32.06,6.65.15,9.97.24v.82c-.4-.05-.81-.12-1.21-.14-3.04-.09-6.09-.18-9.13-.24-.53,0-.88-.14-1.17-.62-3.14-5.14-6.3-10.27-9.45-15.4-.05-.09-.08-.19-.16-.36.2-.04.38-.11.56-.11,5.95.15,11.9.32,17.86.47.59.01.93.24,1.22.74.46.78.99,1.53,1.49,2.29v1.44Z"/>
  <path class="cls-1" d="M288,150.38c-.44.05-.88.12-1.32.14-2.84.09-5.68.18-8.53.23-.6.01-.99.16-1.33.71-2.74,4.51-5.51,8.99-8.27,13.49-.14.22-.24.46-.43.83.42,0,.71,0,1.01,0,5.21-.14,10.41-.29,15.62-.41.66-.02,1.07-.22,1.39-.81.58-1.05,1.23-2.05,1.86-3.07v1.44c-.51.81-1.04,1.6-1.51,2.43-.29.52-.67.67-1.24.69-5.34.13-10.69.28-16.03.42-.75.02-1.5,0-2.34,0,.1-.23.17-.44.28-.62,3.08-5.02,6.18-10.04,9.24-15.07.32-.53.69-.75,1.31-.76,3.43-.07,6.85-.17,10.28-.25v.62Z"/>
  <path class="cls-1" d="M288,38.67c-.44.05-.88.12-1.32.14-2.84.09-5.68.18-8.53.23-.6.01-.99.17-1.33.71-2.74,4.51-5.51,9-8.27,13.49-.14.22-.24.47-.43.83.42,0,.71,0,1.01,0,5.21-.14,10.41-.3,15.62-.42.66-.02,1.07-.22,1.39-.81.58-1.05,1.23-2.05,1.86-3.07v1.44c-.51.81-1.04,1.6-1.51,2.43-.29.52-.67.67-1.24.69-5.14.12-10.28.27-15.41.41-.95.03-1.91,0-2.96,0,.12-.24.2-.48.34-.7,3.05-4.96,6.11-9.92,9.13-14.89.37-.6.78-.84,1.47-.85,3.39-.06,6.78-.16,10.17-.25v.62Z"/>
  <path class="cls-1" d="M288,238.22c-.67-1.06-1.36-2.12-2.01-3.2-.22-.36-.47-.52-.9-.53-5.48-.13-10.97-.29-16.45-.43-.1,0-.2.03-.39.07.09.23.13.45.24.63,2.8,4.56,5.6,9.11,8.39,13.67.28.46.61.66,1.15.67,3.32.06,6.65.16,9.97.24v.82c-.4-.05-.81-.12-1.21-.14-3.04-.09-6.09-.18-9.13-.24-.53-.01-.88-.14-1.17-.62-3.14-5.14-6.3-10.26-9.45-15.39-.05-.09-.08-.19-.17-.38.28-.03.53-.09.77-.08,5.85.15,11.7.32,17.55.46.67.02,1.06.26,1.38.83.43.76.95,1.47,1.43,2.2v1.44Z"/>
  <path class="cls-1" d="M288,262.08c-.44.05-.88.12-1.32.14-2.84.09-5.68.18-8.53.23-.6.01-.99.16-1.33.71-2.74,4.51-5.51,8.99-8.27,13.49-.14.22-.24.46-.43.82.49,0,.85,0,1.21,0,5.1-.14,10.21-.29,15.31-.4.73-.02,1.2-.24,1.55-.9.55-1.02,1.2-1.99,1.8-2.98v1.44c-.51.81-1.04,1.6-1.51,2.43-.29.52-.67.67-1.24.69-5.14.12-10.28.27-15.41.41-.96.02-1.91,0-2.95,0,.09-.21.16-.42.27-.61,3.08-5.02,6.18-10.04,9.24-15.07.33-.53.69-.75,1.31-.76,3.43-.07,6.85-.17,10.28-.25v.62Z"/>
  <path class="cls-1" d="M288,126.51c-.67-1.06-1.36-2.12-2.01-3.2-.22-.36-.47-.52-.9-.53-5.48-.13-10.97-.29-16.45-.43-.1,0-.2.03-.39.06.08.23.13.45.24.63,2.8,4.56,5.6,9.11,8.39,13.67.28.46.61.66,1.15.67,3.32.06,6.65.15,9.97.24v.82c-.44-.05-.88-.13-1.32-.14-3.01-.09-6.02-.18-9.03-.24-.53,0-.88-.14-1.17-.62-3.14-5.14-6.3-10.27-9.45-15.4-.05-.08-.08-.19-.16-.36.2-.04.38-.11.56-.1,5.95.15,11.9.32,17.86.47.59.01.93.24,1.22.74.46.78.99,1.53,1.49,2.29v1.44Z"/>
  <path class="cls-1" d="M288,182.47c-.62-1.02-1.28-2.02-1.86-3.07-.32-.59-.74-.79-1.39-.8-3.12-.05-6.23-.15-9.35-.23-2.16-.06-4.31-.13-6.47-.19-.22,0-.45.02-.8.04.21.39.36.69.53.97,2.71,4.41,5.42,8.8,8.11,13.22.34.56.71.8,1.38.81,2.64.03,5.27.12,7.91.21.65.02,1.29.1,1.94.15v.62c-3.43-.09-6.85-.18-10.28-.26-.55-.01-.94-.14-1.26-.67-3.12-5.12-6.27-10.22-9.41-15.33-.07-.11-.12-.23-.23-.44.27-.03.46-.07.65-.07,5.93.16,11.85.34,17.78.48.63.02,1,.25,1.29.77.45.8.96,1.56,1.45,2.34v1.44Z"/>
  <path class="cls-1" d="M288,206.33c-3.29.08-6.58.17-9.87.24-.56,0-.94.14-1.26.67-2.78,4.57-5.59,9.12-8.39,13.67-.1.17-.18.35-.31.62.29.04.48.08.67.08,5.38-.14,10.76-.3,16.14-.43.51-.01.81-.19,1.06-.62.62-1.05,1.3-2.08,1.95-3.12v1.44c-.46.7-.99,1.37-1.37,2.12-.37.71-.88.92-1.64.93-2.98.04-5.95.15-8.93.23-2.7.07-5.41.15-8.11.21-.33,0-.66,0-1.13,0,.2-.38.32-.64.48-.89,3.03-4.93,6.07-9.85,9.07-14.79.34-.56.71-.79,1.38-.8,3.01-.04,6.02-.14,9.03-.23.4-.01.81-.09,1.21-.14v.82Z"/>
  <path class="cls-1" d="M288,70.77c-.62-1.02-1.28-2.02-1.86-3.07-.32-.59-.74-.79-1.39-.8-3.15-.05-6.3-.15-9.45-.23-2.12-.06-4.25-.12-6.37-.18-.23,0-.45.02-.79.04.19.36.31.63.47.88,2.72,4.44,5.46,8.87,8.16,13.31.34.56.71.8,1.38.81,2.64.03,5.27.12,7.91.2.65.02,1.29.1,1.94.15v.62c-3.43-.09-6.85-.18-10.28-.26-.55-.01-.94-.14-1.26-.67-3.12-5.12-6.27-10.22-9.41-15.33-.07-.11-.12-.23-.21-.44.29-.03.52-.07.74-.06,5.86.16,11.71.34,17.57.47.72.02,1.12.27,1.45.87.42.77.93,1.5,1.4,2.25v1.44Z"/>
  <path class="cls-1" d="M288,94.63c-3.29.08-6.58.17-9.87.24-.56.01-.94.14-1.26.67-2.78,4.57-5.59,9.12-8.39,13.67-.1.17-.18.35-.31.62.29.04.48.08.67.08,5.38-.14,10.76-.3,16.14-.43.51-.01.81-.19,1.06-.62.62-1.05,1.3-2.08,1.95-3.12v1.44c-.46.7-.99,1.37-1.37,2.12-.37.71-.88.92-1.64.93-2.98.05-5.95.15-8.93.23-2.7.07-5.41.15-8.11.22-.33,0-.66,0-1.13,0,.2-.38.33-.64.48-.89,3.03-4.93,6.06-9.85,9.07-14.79.34-.56.71-.79,1.38-.8,3.01-.04,6.02-.14,9.03-.23.4-.01.81-.09,1.21-.14v.82Z"/>
  <path class="cls-1" d="M202.83,0c-.78,1.48-1.56,2.96-2.37,4.5,2.73,5.05,5.48,10.12,8.33,15.39,2.85-5.27,5.6-10.34,8.33-15.39-.81-1.53-1.59-3.02-2.37-4.5h.82c.78,1.48,1.55,2.97,2.35,4.5-3,5.54-6.01,11.1-9.03,16.69-.59-.58-8.29-14.6-9.22-16.75.77-1.48,1.55-2.96,2.32-4.45h.82Z"/>
  <path class="cls-1" d="M9.05,0c-.78,1.48-1.56,2.96-2.37,4.5,2.73,5.05,5.48,10.12,8.33,15.39,2.85-5.27,5.6-10.34,8.33-15.39-.81-1.53-1.59-3.02-2.37-4.5h.82c.77,1.48,1.55,2.97,2.35,4.5-3,5.54-6.01,11.1-9.03,16.69-.59-.58-8.29-14.6-9.22-16.75.77-1.48,1.55-2.96,2.32-4.45h.82Z"/>
  <path class="cls-1" d="M105.94,0c-.78,1.48-1.56,2.96-2.37,4.5,2.73,5.05,5.48,10.12,8.33,15.39,2.85-5.27,5.6-10.34,8.33-15.39-.81-1.54-1.59-3.02-2.37-4.5h.82c.77,1.48,1.55,2.97,2.35,4.5-3,5.54-6.01,11.1-9.03,16.69-.59-.58-8.29-14.61-9.22-16.75.77-1.48,1.55-2.96,2.32-4.45h.82Z"/>
  <path class="cls-1" d="M0,81.87h4.04c-.08-.2-.12-.39-.21-.55-1.08-1.77-2.16-3.54-3.26-5.3-.13-.21-.37-.35-.57-.53v-1.44c.17.16.38.3.49.49,1.58,2.56,3.15,5.12,4.72,7.68.05.08.08.18.11.28-.7.25-3.63.24-5.33-.02v-.62Z"/>
  <path class="cls-1" d="M0,193.58h4.04c-.08-.2-.12-.39-.21-.55-1.08-1.77-2.16-3.54-3.26-5.3-.13-.21-.37-.35-.57-.53v-1.44c.17.16.38.3.49.49,1.58,2.56,3.15,5.12,4.72,7.68.05.08.08.18.11.28-.7.25-3.64.24-5.33-.02v-.62Z"/>
  <path class="cls-1" d="M0,156.75c.17-.14.4-.26.51-.44,1.15-1.85,2.28-3.7,3.42-5.56.05-.08.06-.18.13-.38H0v-.62c1.76-.09,3.52-.17,5.44-.27-.18.39-.25.6-.37.79-1.48,2.42-2.96,4.83-4.46,7.24-.16.25-.4.44-.6.66v-1.44Z"/>
  <path class="cls-1" d="M0,268.46c.17-.14.4-.26.51-.44,1.15-1.85,2.28-3.71,3.42-5.56.05-.08.06-.18.13-.38H0v-.62c1.76-.09,3.52-.17,5.43-.27-.16.36-.21.55-.31.71-1.52,2.47-3.04,4.95-4.57,7.41-.14.22-.37.39-.55.58v-1.44Z"/>
  <path class="cls-1" d="M0,45.05c.17-.14.4-.26.51-.44,1.15-1.85,2.28-3.71,3.42-5.56.05-.08.06-.18.13-.38H0v-.62c1.76-.09,3.52-.17,5.46-.27-.23.45-.35.72-.5.97-1.43,2.33-2.86,4.66-4.3,6.98-.17.28-.44.5-.66.75v-1.44Z"/>
  <path class="cls-1" d="M0,249.32c1.32.08,2.64.17,4.07.26-.07-.26-.08-.43-.16-.55-1.13-1.86-2.27-3.72-3.42-5.57-.12-.2-.32-.34-.49-.51v-1.23c.14.08.33.13.4.26,1.67,2.69,3.33,5.38,5.04,8.17-1,.25-1.9.03-2.79.04-.89.02-1.77-.02-2.66-.03v-.82Z"/>
  <path class="cls-1" d="M0,101.01c.16-.17.37-.31.49-.5,1.15-1.85,2.29-3.71,3.42-5.57.07-.11.1-.23.19-.46-1.43-.04-2.77-.04-4.11.15v-.82h5.37c-.1.22-.18.43-.29.62-1.46,2.38-2.92,4.76-4.4,7.13-.17.26-.45.46-.68.68v-1.23Z"/>
  <path class="cls-1" d="M0,25.92c1.32.08,2.64.16,4.07.25-.07-.26-.08-.43-.16-.55-1.13-1.86-2.27-3.72-3.42-5.57-.12-.2-.32-.34-.49-.51v-1.23c.14.08.33.13.4.25,1.67,2.69,3.33,5.38,5.1,8.26-1.95.04-3.73-.11-5.5-.08v-.82Z"/>
  <path class="cls-1" d="M0,212.71c.16-.17.37-.31.49-.5,1.15-1.85,2.29-3.71,3.42-5.57.07-.11.1-.24.19-.46-1.43-.04-2.77-.04-4.1.15v-.82h5.37c-.09.19-.15.37-.24.53-1.48,2.41-2.95,4.82-4.45,7.22-.17.26-.45.46-.68.68v-1.23Z"/>
  <path class="cls-1" d="M0,137.62c1.32.08,2.64.17,4.07.26-.07-.26-.08-.43-.16-.55-1.13-1.86-2.27-3.72-3.42-5.57-.12-.2-.32-.34-.49-.51v-1.23c.17.14.4.25.52.43,1.6,2.58,3.18,5.16,4.77,7.75.03.05.04.13.09.34-1.81.04-3.59-.11-5.37-.08v-.82Z"/>
  <path class="cls-1" d="M160.35,49.28c-.23-.39-.4-.65-.54-.92-2.76-5.09-5.5-10.18-8.27-15.27-.26-.48-.35-.87-.05-1.41,2.86-5.23,5.69-10.47,8.52-15.71.08-.15.18-.29.32-.51.18.27.34.47.46.69,2.79,5.15,5.57,10.3,8.36,15.45.26.48.38.86.07,1.41-2.86,5.23-5.69,10.47-8.53,15.71-.08.15-.18.28-.36.56ZM160.39,16.91c-.18.27-.31.43-.4.61-2.56,4.73-5.12,9.47-7.7,14.19-.27.48-.23.85.02,1.32,2.56,4.69,5.1,9.4,7.64,14.1.1.19.25.36.41.59.12-.18.21-.28.28-.4,2.6-4.79,5.18-9.59,7.79-14.37.28-.51.17-.87-.08-1.32-1.76-3.22-3.5-6.45-5.24-9.67-.88-1.62-1.76-3.25-2.73-5.04Z"/>
  <path class="cls-1" d="M257.26,15.43c.22.38.38.64.52.91,2.74,5.06,5.47,10.12,8.23,15.17.34.62.34,1.07,0,1.69-2.76,5.05-5.49,10.11-8.23,15.17-.14.27-.31.52-.52.88-.19-.29-.36-.49-.48-.71-2.79-5.15-5.57-10.3-8.36-15.45-.24-.44-.37-.81-.09-1.32,2.89-5.29,5.75-10.59,8.62-15.89.06-.12.15-.22.31-.44ZM257.25,47.79c.23-.4.4-.65.54-.92,2.46-4.55,4.91-9.11,7.41-13.64.36-.66.33-1.14-.02-1.78-2.49-4.54-4.94-9.1-7.41-13.65-.14-.27-.31-.52-.52-.86-.2.34-.37.59-.51.86-2.48,4.58-4.94,9.17-7.45,13.74-.35.63-.3,1.09.03,1.69,2.48,4.54,4.94,9.1,7.4,13.65.15.27.31.53.54.93Z"/>
  <path class="cls-1" d="M63.48,238.87c.18.3.33.53.46.76,2.77,5.12,5.53,10.24,8.32,15.36.29.54.33.95.03,1.5-2.82,5.17-5.62,10.35-8.42,15.53-.1.18-.21.35-.37.61-.17-.23-.33-.39-.43-.58-2.82-5.21-5.64-10.42-8.47-15.62-.23-.42-.32-.76-.06-1.23,2.9-5.32,5.78-10.66,8.67-15.98.05-.09.12-.16.27-.35ZM63.46,271.17c.2-.33.37-.58.51-.84,2.48-4.58,4.95-9.17,7.45-13.74.34-.62.32-1.08-.01-1.69-2.5-4.57-4.97-9.16-7.45-13.74-.14-.26-.31-.5-.51-.82-.21.36-.37.62-.52.88-2.47,4.55-4.91,9.11-7.41,13.64-.36.65-.34,1.14,0,1.78,2.49,4.54,4.94,9.1,7.41,13.64.14.27.31.52.52.87Z"/>
  <path class="cls-1" d="M257.25,238.83c.21.35.36.57.49.81,2.77,5.12,5.54,10.24,8.31,15.36.26.47.38.86.08,1.41-2.86,5.22-5.69,10.47-8.53,15.71-.08.15-.18.29-.33.52-.19-.27-.35-.47-.47-.69-2.79-5.15-5.57-10.3-8.37-15.45-.26-.48-.35-.87-.06-1.41,2.86-5.23,5.69-10.47,8.53-15.71.08-.15.18-.29.34-.55ZM257.25,240.32c-.22.38-.39.63-.53.9-2.47,4.55-4.92,9.11-7.41,13.64-.36.65-.35,1.13,0,1.78,2.49,4.54,4.94,9.1,7.41,13.65.14.27.31.52.52.87.21-.33.37-.58.51-.84,2.48-4.58,4.95-9.17,7.45-13.74.34-.62.33-1.07,0-1.69-2.52-4.6-5-9.22-7.5-13.83-.11-.21-.24-.41-.45-.76Z"/>
  <path class="cls-1" d="M63.45,49.28c-.25-.45-.43-.74-.59-1.03-2.71-5-5.4-10-8.13-14.99-.35-.64-.38-1.13-.02-1.78,2.75-5.01,5.46-10.05,8.18-15.08.16-.3.34-.59.55-.96.19.29.35.5.47.73,2.79,5.15,5.57,10.3,8.37,15.45.27.49.33.88.04,1.41-2.84,5.2-5.65,10.41-8.47,15.62-.1.18-.21.34-.4.63ZM63.46,47.76c.21-.33.37-.57.51-.83,2.48-4.58,4.95-9.17,7.45-13.74.34-.62.33-1.07,0-1.69-2.52-4.6-5-9.22-7.5-13.83-.12-.23-.28-.44-.47-.72-.2.34-.37.6-.51.87-2.46,4.55-4.91,9.11-7.41,13.65-.35.64-.35,1.13,0,1.78,2.49,4.54,4.94,9.09,7.41,13.64.14.27.31.52.52.88Z"/>
  <path class="cls-1" d="M257.25,127.12c.22.39.38.65.53.92,2.74,5.06,5.47,10.12,8.23,15.17.33.61.35,1.07,0,1.69-2.76,5.05-5.49,10.11-8.23,15.17-.14.27-.31.53-.52.88-.19-.29-.36-.48-.48-.7-2.79-5.15-5.57-10.3-8.37-15.45-.26-.49-.34-.88-.05-1.41,2.86-5.23,5.69-10.47,8.52-15.71.08-.15.18-.29.35-.55ZM257.25,128.62c-.22.38-.39.64-.53.9-2.47,4.55-4.92,9.11-7.41,13.64-.35.65-.35,1.13,0,1.78,2.48,4.51,4.91,9.03,7.36,13.55.16.3.34.59.56.97.21-.34.38-.59.52-.85,2.48-4.58,4.95-9.17,7.45-13.74.34-.62.33-1.08,0-1.69-2.5-4.57-4.97-9.16-7.45-13.74-.13-.24-.28-.47-.5-.85Z"/>
  <path class="cls-1" d="M160.35,238.81c.22.38.4.67.56.96,2.74,5.06,5.47,10.12,8.22,15.17.28.52.4.92.08,1.5-2.84,5.2-5.65,10.41-8.48,15.62-.1.18-.22.34-.4.61-.21-.37-.39-.64-.54-.93-2.72-5.03-5.43-10.06-8.18-15.08-.36-.65-.36-1.13,0-1.78,2.75-5.01,5.46-10.05,8.18-15.08.16-.3.34-.59.57-.99ZM160.35,240.32c-.22.38-.37.61-.5.85-2.48,4.58-4.95,9.17-7.45,13.74-.34.61-.34,1.07,0,1.69,2.5,4.57,4.97,9.16,7.45,13.74.14.26.31.51.51.84.21-.35.38-.61.52-.88,2.46-4.55,4.91-9.11,7.41-13.64.36-.65.36-1.14,0-1.78-2.49-4.54-4.94-9.1-7.41-13.65-.14-.27-.31-.52-.53-.9Z"/>
  <path class="cls-1" d="M208.8,188.85c-.24-.41-.42-.69-.58-.98-2.71-5-5.4-10.01-8.13-15-.35-.65-.36-1.13,0-1.78,2.73-4.99,5.42-10,8.13-15,.16-.29.34-.57.57-.97.18.27.32.45.43.65,2.79,5.15,5.58,10.3,8.37,15.45.26.48.36.88.06,1.42-2.86,5.23-5.69,10.48-8.52,15.72-.06.12-.15.23-.32.49ZM208.79,187.34c.21-.33.35-.53.46-.73,2.51-4.64,5.02-9.29,7.55-13.91.31-.56.25-.98-.04-1.51-2.51-4.6-5-9.22-7.5-13.82-.12-.22-.29-.43-.48-.71-.17.26-.29.42-.38.6-2.53,4.67-5.05,9.35-7.6,14-.31.56-.25.98.04,1.51,2.49,4.57,4.97,9.16,7.45,13.74.13.24.28.46.51.84Z"/>
  <path class="cls-1" d="M160.35,127.12c.2.34.36.57.48.8,2.77,5.12,5.54,10.24,8.31,15.36.26.47.39.85.09,1.41-2.88,5.25-5.72,10.53-8.57,15.8-.06.12-.15.22-.28.41-.16-.22-.32-.38-.42-.57-2.82-5.21-5.64-10.42-8.47-15.62-.26-.47-.27-.84,0-1.32,2.85-5.23,5.68-10.47,8.52-15.71.08-.15.18-.29.35-.56ZM160.35,159.49c.22-.38.39-.63.53-.9,2.46-4.55,4.91-9.11,7.41-13.64.36-.65.35-1.14,0-1.78-2.49-4.54-4.94-9.09-7.41-13.64-.14-.27-.31-.52-.52-.87-.2.33-.37.58-.51.84-2.48,4.58-4.95,9.17-7.45,13.74-.34.62-.33,1.08,0,1.69,2.5,4.57,4.97,9.16,7.45,13.74.13.24.28.47.5.85Z"/>
  <path class="cls-1" d="M15.01,43.39c.23.37.37.6.5.83,2.76,5.09,5.5,10.19,8.28,15.27.32.59.31,1.02,0,1.6-2.76,5.05-5.49,10.12-8.23,15.18-.14.26-.31.51-.53.87-.21-.34-.38-.58-.52-.84-2.74-5.06-5.47-10.13-8.23-15.18-.31-.57-.37-1-.04-1.6,2.8-5.11,5.56-10.24,8.33-15.36.11-.21.24-.41.45-.77ZM15.01,75.62c.17-.25.26-.35.33-.47,2.58-4.76,5.15-9.53,7.74-14.28.25-.45.22-.8-.02-1.23-2.57-4.72-5.12-9.46-7.69-14.19-.09-.16-.24-.29-.4-.48-.19.31-.34.54-.46.78-2.46,4.55-4.91,9.11-7.4,13.64-.36.65-.34,1.14.02,1.79,2.47,4.51,4.9,9.03,7.35,13.55.14.26.31.51.54.89Z"/>
  <path class="cls-1" d="M111.91,43.4c.24.41.42.69.58.98,2.71,5,5.4,10.01,8.13,15,.35.64.36,1.13,0,1.78-2.73,4.99-5.42,10-8.13,15-.16.29-.34.58-.57.97-.18-.27-.32-.45-.43-.65-2.79-5.15-5.58-10.3-8.37-15.45-.26-.48-.36-.88-.06-1.42,2.86-5.23,5.69-10.48,8.52-15.72.06-.12.15-.23.32-.49ZM111.9,75.61c.16-.22.23-.3.28-.39,2.59-4.79,5.18-9.58,7.79-14.37.25-.46.19-.81-.04-1.23-2.55-4.7-5.09-9.4-7.64-14.1-.1-.19-.27-.33-.43-.54-.13.2-.22.31-.28.43-2.56,4.73-5.11,9.47-7.7,14.19-.32.59-.18,1,.09,1.51,2.47,4.54,4.93,9.1,7.4,13.65.14.26.31.5.53.86Z"/>
  <path class="cls-1" d="M208.78,77.14c-.21-.36-.36-.58-.48-.82-2.76-5.09-5.51-10.19-8.28-15.27-.29-.53-.33-.96-.02-1.51,2.81-5.14,5.59-10.3,8.38-15.45.11-.2.24-.38.43-.67.21.35.38.59.52.85,2.74,5.06,5.48,10.12,8.22,15.18.25.46.44.84.13,1.42-2.88,5.26-5.72,10.54-8.57,15.81-.06.12-.15.22-.32.45ZM208.8,44.94c-.2.31-.35.52-.48.75-2.5,4.61-4.98,9.22-7.5,13.82-.33.6-.26,1.04.04,1.6,2.48,4.54,4.93,9.1,7.4,13.64.14.26.31.5.53.85.2-.31.36-.52.48-.75,2.5-4.61,4.98-9.23,7.51-13.82.33-.6.26-1.04-.05-1.6-2.48-4.54-4.93-9.1-7.4-13.64-.14-.26-.31-.5-.53-.85Z"/>
  <path class="cls-1" d="M150.73,222.37c-.45,0-.79,0-1.13,0-5.68-.15-11.37-.32-17.05-.45-.73-.02-1.17-.26-1.55-.89-2.97-4.89-5.98-9.75-8.97-14.62-.16-.26-.31-.53-.52-.88.28-.05.49-.12.71-.11,5.92.16,11.85.33,17.77.49.48.01.83.11,1.1.56,3.16,5.17,6.34,10.33,9.5,15.5.05.08.06.18.14.41ZM122.79,206.15c.12.27.18.42.26.56,2.85,4.64,5.71,9.27,8.55,13.92.25.41.55.53,1,.54,5.34.14,10.68.29,16.03.43.23,0,.46-.03.78-.06-.13-.29-.21-.5-.33-.7-2.78-4.52-5.57-9.04-8.33-13.57-.34-.56-.75-.69-1.34-.71-5.17-.13-10.34-.28-15.51-.42-.33,0-.66,0-1.1,0Z"/>
  <path class="cls-1" d="M150.8,110.67c-.46,0-.75,0-1.05,0-5.75-.15-11.5-.32-17.26-.46-.63-.02-1.06-.17-1.42-.76-3.06-5.03-6.16-10.04-9.24-15.06-.1-.17-.18-.35-.32-.62.28-.03.47-.07.66-.07,5.92.16,11.85.34,17.77.48.58.02.92.2,1.23.7,3.08,5.06,6.19,10.1,9.29,15.15.09.14.16.3.34.63ZM149.43,109.83c-.15-.3-.24-.51-.36-.71-2.78-4.52-5.57-9.04-8.33-13.57-.31-.52-.68-.67-1.24-.69-5.27-.13-10.55-.28-15.82-.42-.26,0-.51,0-.86,0,.1.26.14.38.21.49,2.87,4.67,5.74,9.33,8.6,14.01.25.42.57.51,1.01.52,5.34.14,10.68.29,16.03.43.22,0,.45-.04.78-.07Z"/>
  <path class="cls-1" d="M63.45,127.13c.2.31.35.52.48.76,2.79,5.15,5.57,10.3,8.37,15.44.28.51.3.89.02,1.41-2.82,5.17-5.62,10.36-8.42,15.54-.11.21-.25.39-.45.69-.21-.37-.39-.65-.55-.94-2.72-5.03-5.43-10.06-8.18-15.08-.36-.65-.35-1.13,0-1.78,2.75-5.01,5.46-10.05,8.18-15.08.16-.3.34-.59.55-.96ZM63.47,159.44c.14-.2.24-.34.32-.48,2.58-4.76,5.15-9.53,7.75-14.28.27-.49.2-.86-.05-1.32-2.56-4.7-5.1-9.4-7.65-14.1-.1-.19-.25-.35-.41-.58-.14.23-.24.37-.32.52-2.56,4.73-5.11,9.47-7.7,14.19-.29.54-.22.92.05,1.41,2.52,4.63,5.03,9.28,7.54,13.92.12.23.29.44.46.72Z"/>
  <path class="cls-1" d="M247.69,222.36c-.67,0-1.17.01-1.68,0-5.48-.15-10.96-.32-16.44-.43-.87-.02-1.34-.32-1.78-1.05-2.93-4.83-5.9-9.64-8.86-14.45-.17-.28-.33-.57-.55-.97.34-.02.56-.06.79-.05,5.85.16,11.71.34,17.57.48.6.01.99.16,1.33.71,3.06,5.03,6.16,10.04,9.24,15.06.11.17.2.35.39.7ZM219.61,206.17c3.13,5.09,6.16,10.02,9.16,14.9,2.5.33,16.6.62,17.5.35-.15-.27-.28-.54-.44-.8-2.69-4.38-5.39-8.74-8.05-13.14-.41-.67-.86-.91-1.64-.93-4.83-.1-9.66-.25-14.48-.38-.61-.02-1.22,0-2.04,0Z"/>
  <path class="cls-1" d="M53.9,222.35c-.87,0-1.58.02-2.29,0-5.27-.14-10.54-.31-15.82-.42-.87-.02-1.34-.33-1.78-1.05-2.93-4.83-5.9-9.64-8.86-14.45-.17-.28-.32-.58-.54-.97.34-.02.57-.06.79-.05,5.89.16,11.78.34,17.67.48.6.01.92.23,1.22.72,3.05,5,6.12,9.98,9.19,14.97.12.2.23.41.43.77ZM25.83,206.17c3.14,5.1,6.16,10.03,9.17,14.91,3.11.36,16.64.62,17.49.32-.13-.24-.25-.48-.39-.71-2.71-4.41-5.43-8.8-8.11-13.23-.41-.68-.88-.9-1.64-.91-4.83-.1-9.66-.25-14.48-.38-.61-.02-1.21,0-2.03,0Z"/>
  <path class="cls-1" d="M15.02,155.09c.24.41.41.67.55.93,2.72,5.03,5.44,10.07,8.18,15.09.33.6.38,1.06.03,1.69-2.77,5.04-5.49,10.12-8.23,15.18-.14.26-.31.5-.53.85-.22-.35-.38-.59-.53-.85-2.74-5.06-5.47-10.13-8.23-15.18-.31-.57-.35-1.01-.03-1.6,2.8-5.11,5.56-10.24,8.33-15.36.11-.2.24-.4.45-.75ZM15.03,156.61c-.21.34-.35.52-.46.72-2.51,4.64-5.02,9.29-7.55,13.91-.3.56-.26.98.03,1.51,2.51,4.6,5,9.22,7.5,13.82.12.23.28.43.48.73.19-.3.32-.48.43-.69,2.51-4.64,5.02-9.29,7.55-13.91.3-.56.26-.98-.03-1.51-2.48-4.54-4.93-9.1-7.4-13.65-.15-.27-.31-.53-.55-.95Z"/>
  <path class="cls-1" d="M111.92,155.13c.23.38.41.66.57.95,2.71,5,5.4,10.01,8.13,15,.35.64.38,1.13.02,1.78-2.73,4.99-5.43,10-8.13,15-.16.29-.34.58-.57.97-.2-.3-.36-.5-.48-.72-2.78-5.12-5.54-10.24-8.33-15.36-.26-.48-.37-.87-.07-1.42,2.84-5.2,5.65-10.42,8.47-15.63.09-.17.22-.32.39-.57ZM111.91,156.65c-.17.26-.3.41-.39.58-2.55,4.7-5.08,9.41-7.65,14.09-.3.54-.2.94.06,1.42,2.51,4.61,5,9.22,7.5,13.83.12.23.28.44.48.75.17-.26.29-.41.39-.58,2.55-4.7,5.08-9.41,7.65-14.1.3-.54.2-.94-.06-1.42-2.51-4.61-5-9.22-7.5-13.83-.12-.23-.28-.44-.47-.75Z"/>
  <path class="cls-1" d="M73.05,233.3c.65,0,1.16-.01,1.66,0,5.44.15,10.89.31,16.33.43.87.02,1.41.27,1.88,1.06,2.92,4.84,5.9,9.64,8.85,14.45.17.28.32.58.53.96-.35.02-.57.06-.8.05-5.86-.16-11.71-.34-17.56-.49-.54-.01-.94-.09-1.27-.63-3.12-5.12-6.26-10.22-9.4-15.32-.07-.11-.11-.24-.24-.51ZM74.4,234.12c.18.34.3.61.45.86,2.72,4.44,5.46,8.86,8.16,13.31.35.57.73.79,1.39.8,5.17.12,10.34.27,15.51.41.33,0,.66,0,1.11,0-.12-.26-.18-.42-.26-.55-2.85-4.64-5.71-9.28-8.55-13.92-.25-.41-.54-.54-1-.55-5.38-.13-10.75-.29-16.13-.43-.19,0-.39.04-.7.06Z"/>
  <path class="cls-1" d="M24.55,26.8c1.09-1.77,2.07-3.38,3.06-4.98,2.19-3.56,4.38-7.11,6.55-10.68.32-.52.67-.78,1.29-.79,5.92-.14,11.85-.31,17.77-.47.17,0,.34.02.61.03-.14.29-.22.53-.36.75-3.06,4.99-6.14,9.97-9.19,14.97-.33.54-.7.72-1.32.73-5.86.15-11.71.32-17.56.49-.23,0-.45-.03-.86-.05ZM52.56,10.69c-.38-.02-.59-.04-.79-.04-5.34.14-10.68.3-16.03.42-.57.01-.85.25-1.12.69-2.77,4.53-5.55,9.05-8.33,13.57-.13.21-.22.46-.36.77.29,0,.46,0,.63,0,5.38-.15,10.75-.3,16.13-.42.61-.01.91-.3,1.2-.77,2.73-4.47,5.48-8.93,8.22-13.39.14-.22.25-.46.45-.83Z"/>
  <path class="cls-1" d="M73.02,9.88c.47,0,.8,0,1.13,0,5.68.15,11.37.32,17.05.45.76.02,1.23.24,1.64.93,2.98,4.92,6.01,9.81,9.02,14.71.14.22.26.46.45.8-.31.04-.53.09-.75.08-5.85-.16-11.71-.34-17.56-.48-.65-.02-1.05-.2-1.4-.78-3.02-4.97-6.08-9.93-9.13-14.89-.14-.22-.25-.46-.45-.82ZM74.39,10.72c.15.3.24.51.35.7,2.78,4.52,5.57,9.04,8.33,13.57.31.51.67.68,1.24.69,5.31.13,10.61.28,15.92.42.22,0,.44,0,.77,0-.1-.25-.14-.38-.2-.49-2.87-4.67-5.74-9.33-8.6-14.01-.25-.41-.56-.52-1.01-.53-5.34-.14-10.68-.29-16.02-.43-.22,0-.45.04-.78.06Z"/>
  <path class="cls-1" d="M199.2,26.82c-.31.02-.48.05-.65.04-5.92-.17-11.85-.34-17.77-.49-.58-.01-.93-.19-1.23-.69-3.1-5.09-6.23-10.16-9.35-15.23-.07-.12-.12-.24-.23-.45.25-.04.47-.11.68-.1,5.89.15,11.78.32,17.67.47.54.01.94.13,1.27.66,3.12,5.12,6.26,10.22,9.4,15.32.07.11.11.24.22.49ZM198,26.1c-3.15-5.13-6.18-10.05-9.18-14.93-3.28-.37-16.65-.62-17.47-.32.06.12.1.25.17.36,2.83,4.61,5.68,9.21,8.49,13.84.33.54.74.62,1.28.63,5.2.13,10.41.28,15.61.42.3,0,.6,0,1.11,0Z"/>
  <path class="cls-1" d="M53.95,233.29c-.61,1-1.1,1.82-1.6,2.63-2.65,4.32-5.32,8.63-7.95,12.96-.38.62-.8.88-1.54.89-5.82.13-11.64.31-17.46.48-.2,0-.41,0-.71,0,.08-.24.1-.44.2-.59,3.12-5.08,6.25-10.15,9.34-15.24.35-.57.78-.67,1.36-.68,4.14-.1,8.29-.2,12.43-.31,1.58-.04,3.15-.1,4.72-.14.33,0,.67,0,1.21,0ZM25.9,249.46c.25.03.35.05.45.05,5.48-.14,10.96-.3,16.44-.43.52-.01.79-.25,1.04-.67,2.79-4.55,5.59-9.1,8.39-13.66.11-.19.17-.41.28-.7-.41,0-.72,0-1.03,0-5.2.14-10.41.3-15.61.41-.64.02-.98.26-1.29.78-2.71,4.45-5.44,8.88-8.17,13.31-.16.26-.29.53-.5.9Z"/>
  <path class="cls-1" d="M169.89,110.62c1.31-2.14,2.53-4.12,3.75-6.11,1.96-3.18,3.91-6.36,5.86-9.54.28-.45.54-.78,1.18-.79,5.99-.14,11.98-.32,17.98-.48.13,0,.27.02.5.04-.1.25-.16.47-.27.65-3.08,5.02-6.17,10.03-9.24,15.06-.3.48-.61.74-1.21.75-5.96.14-11.92.31-17.87.47-.16,0-.32-.02-.65-.05ZM197.92,94.49c-.25-.03-.35-.05-.45-.05-5.48.15-10.96.3-16.44.43-.53.01-.79.26-1.04.67-2.79,4.55-5.59,9.1-8.39,13.65-.11.18-.16.41-.27.7.38,0,.65,0,.93,0,5.24-.14,10.48-.3,15.72-.41.64-.01.97-.27,1.29-.78,2.73-4.47,5.48-8.93,8.22-13.4.14-.23.25-.47.44-.81Z"/>
  <path class="cls-1" d="M218.4,250.21c.15-.3.24-.51.36-.7,3.06-4.99,6.14-9.97,9.19-14.97.32-.52.67-.77,1.3-.79,5.92-.14,11.85-.31,17.77-.47.17,0,.34.02.59.03-.11.26-.18.47-.3.66-3.08,5.02-6.17,10.03-9.24,15.06-.33.54-.71.71-1.32.73-5.86.15-11.71.32-17.56.49-.23,0-.45-.03-.79-.05ZM219.63,249.46c.33.03.46.05.59.05,5.44-.15,10.89-.3,16.33-.43.58-.01.84-.31,1.11-.74,2.75-4.5,5.52-8.99,8.28-13.48.13-.22.22-.46.39-.84-5.93.16-11.71.32-17.5.48-3.06,4.97-6.08,9.89-9.2,14.96Z"/>
  <path class="cls-1" d="M218.4,93.76c.3-.03.5-.06.69-.06,5.92.16,11.85.34,17.77.49.54.01.87.17,1.16.64,3.1,5.09,6.23,10.16,9.35,15.23.09.14.15.29.28.54-.33.03-.58.07-.84.06-5.82-.15-11.64-.32-17.46-.46-.64-.02-1.05-.21-1.41-.79-3.02-4.97-6.08-9.93-9.13-14.89-.14-.22-.25-.46-.42-.78ZM246.29,109.84c-.13-.28-.2-.5-.32-.69-2.78-4.52-5.57-9.04-8.33-13.57-.34-.56-.75-.69-1.34-.71-5.17-.13-10.34-.28-15.51-.42-.33,0-.66,0-1.11,0,.12.26.17.42.26.55,2.85,4.64,5.71,9.28,8.55,13.92.25.41.54.54,1,.54,5.38.14,10.75.29,16.13.44.19,0,.39-.04.68-.06Z"/>
  <path class="cls-1" d="M247.67,121.62c-.21.38-.35.65-.5.9-3.01,4.9-6.03,9.8-9.02,14.71-.36.59-.76.83-1.46.84-5.82.14-11.64.32-17.46.48-.23,0-.46-.02-.8-.04.13-.28.21-.5.33-.69,3.06-4.99,6.14-9.97,9.19-14.97.31-.51.65-.8,1.29-.81,5.96-.14,11.92-.31,17.87-.47.13,0,.27.02.58.04ZM228.82,122.8c-3.06,4.97-6.09,9.92-9.2,14.97.35.02.51.05.67.04,5.41-.15,10.82-.3,16.23-.43.57-.01.85-.28,1.12-.72,2.77-4.53,5.56-9.05,8.33-13.57.12-.19.18-.41.34-.77-5.91.16-11.69.32-17.49.48Z"/>
  <path class="cls-1" d="M199.2,138.5c-.34.02-.56.06-.79.05-5.85-.16-11.71-.34-17.56-.49-.54-.02-.94-.09-1.27-.63-3.12-5.12-6.26-10.22-9.4-15.32-.07-.11-.11-.24-.21-.46.31-.03.57-.07.82-.07,5.82.15,11.64.32,17.46.46.64.02,1.05.21,1.41.79,3.04,5,6.12,9.98,9.19,14.97.12.19.21.4.36.7ZM197.87,137.79c-.07-.21-.08-.31-.13-.4-2.88-4.7-5.77-9.39-8.65-14.1-.26-.42-.58-.5-1.02-.51-5.34-.14-10.68-.29-16.02-.43-.22,0-.44.04-.77.07.22.4.37.7.54.98,2.67,4.35,5.36,8.69,8,13.05.4.67.84.93,1.63.95,4.9.1,9.79.25,14.69.38.55.02,1.09,0,1.74,0Z"/>
  <path class="cls-1" d="M102.33,138.55c-2.54-.06-4.9-.1-7.26-.17-3.7-.1-7.4-.23-11.09-.32-.6-.01-.99-.15-1.33-.71-3.08-5.06-6.19-10.1-9.29-15.15-.09-.14-.16-.3-.28-.54.27-.04.49-.1.7-.09,5.89.15,11.78.32,17.67.47.55.02.94.15,1.26.67,3.1,5.09,6.23,10.16,9.35,15.24.08.14.14.29.29.59ZM101,137.8c-.1-.24-.13-.37-.19-.47-2.87-4.67-5.74-9.33-8.59-14.01-.25-.41-.56-.52-1-.53-5.34-.14-10.68-.29-16.03-.43-.22,0-.45.04-.78.06.14.29.23.51.34.7,2.78,4.52,5.57,9.04,8.32,13.57.35.57.76.68,1.35.7,5.17.13,10.34.28,15.51.42.33,0,.66,0,1.07,0Z"/>
  <path class="cls-1" d="M169.95,233.29c.42,0,.69,0,.96,0,5.75.15,11.5.32,17.26.45.73.02,1.17.26,1.55.9,3.01,4.95,6.05,9.87,9.08,14.8.12.2.24.41.4.71-.28.04-.49.12-.71.11-5.92-.16-11.85-.34-17.77-.49-.48-.01-.83-.12-1.1-.56-3.14-5.14-6.3-10.27-9.46-15.41-.07-.11-.11-.24-.22-.51ZM197.91,249.49c-.12-.26-.16-.39-.23-.5-2.85-4.64-5.71-9.27-8.54-13.92-.27-.45-.59-.57-1.08-.59-5.31-.13-10.62-.28-15.92-.42-.25,0-.5.04-.86.08.22.4.38.7.55.98,2.67,4.35,5.36,8.69,8,13.05.41.67.86.92,1.64.93,4.86.1,9.72.25,14.59.38.58.02,1.15,0,1.87,0Z"/>
  <path class="cls-1" d="M53.96,121.59c-1.32,2.16-2.52,4.11-3.72,6.06-1.97,3.21-3.95,6.41-5.91,9.63-.31.51-.64.77-1.29.79-5.92.14-11.85.32-17.77.49-.17,0-.34-.02-.6-.04.11-.26.16-.48.28-.66,3.08-5.02,6.17-10.03,9.24-15.06.33-.54.71-.74,1.32-.75,2.4-.04,4.79-.12,7.19-.19,3.36-.09,6.71-.18,10.07-.27.33,0,.66,0,1.2,0ZM25.86,137.84c1.9-.06,3.61-.13,5.32-.18,3.8-.1,7.6-.2,11.4-.28.55-.01.94-.14,1.26-.67,2.78-4.56,5.58-9.11,8.38-13.66.11-.19.17-.41.28-.7-.38,0-.65,0-.92,0-5.24.14-10.48.3-15.72.41-.64.02-.98.27-1.29.78-2.71,4.44-5.44,8.87-8.17,13.31-.16.26-.29.53-.54.98Z"/>
  <path class="cls-1" d="M102.37,93.75c-1.46,2.38-2.82,4.6-4.18,6.81-1.81,2.95-3.63,5.89-5.42,8.85-.31.52-.66.78-1.29.8-5.92.14-11.85.31-17.77.46-.17,0-.34-.02-.61-.03.14-.29.22-.53.36-.74,3.06-4.99,6.13-9.98,9.19-14.97.29-.47.6-.73,1.21-.74,5.92-.14,11.85-.32,17.77-.48.19,0,.39.03.77.05ZM91.88,109.45c3.07-4.98,6.12-9.92,9.19-14.96-.31-.03-.44-.06-.57-.05-5.44.15-10.89.3-16.33.43-.58.01-.84.3-1.11.74-2.75,4.5-5.52,8.99-8.28,13.48-.13.22-.22.46-.4.85,5.93-.16,11.71-.32,17.5-.48Z"/>
  <path class="cls-1" d="M102.37,205.46c-1.44,2.36-2.79,4.54-4.13,6.73-1.83,2.98-3.67,5.94-5.48,8.93-.31.52-.66.78-1.29.79-5.92.14-11.85.31-17.77.47-.17,0-.34-.02-.61-.03.14-.29.22-.53.36-.74,3.06-4.99,6.14-9.97,9.18-14.97.33-.53.7-.73,1.31-.74,5.86-.14,11.71-.32,17.56-.48.23,0,.46.02.87.05ZM101.07,206.12c-1.87.06-3.54.13-5.22.18-3.8.1-7.6.2-11.4.28-.58.01-1.01.1-1.36.67-2.77,4.57-5.58,9.11-8.38,13.66-.11.18-.16.4-.27.7.38,0,.66,0,.93,0,5.24-.14,10.48-.3,15.72-.41.64-.02.97-.28,1.29-.79,2.73-4.47,5.48-8.93,8.22-13.4.14-.23.25-.47.48-.89Z"/>
  <path class="cls-1" d="M121.44,250.21c.84-1.36,1.57-2.56,2.3-3.75,2.44-3.97,4.89-7.93,7.31-11.91.31-.52.66-.79,1.29-.8,5.96-.14,11.92-.31,17.87-.47.13,0,.27.02.51.04-.13.28-.22.52-.35.74-3.06,4.99-6.14,9.97-9.19,14.97-.32.53-.69.73-1.31.74-5.86.14-11.71.32-17.56.48-.23,0-.46-.02-.88-.05ZM122.74,249.46c.32.03.45.06.58.06,5.44-.15,10.89-.3,16.33-.43.57-.01.84-.3,1.11-.73,2.75-4.5,5.52-8.99,8.28-13.48.13-.22.22-.46.4-.85-5.93.16-11.71.32-17.51.48-3.05,4.96-6.08,9.89-9.19,14.96Z"/>
  <path class="cls-1" d="M199.25,205.47c-.36.6-.64,1.06-.93,1.53-2.89,4.7-5.78,9.39-8.66,14.09-.31.51-.64.8-1.28.81-5.96.14-11.92.31-17.87.47-.14,0-.27-.01-.5-.03.1-.24.15-.46.26-.64,3.1-5.05,6.2-10.09,9.3-15.15.25-.4.5-.66,1.04-.67,6.03-.15,12.05-.33,18.08-.49.13,0,.26.03.57.07ZM197.98,206.19c-.35-.02-.52-.05-.68-.04-5.41.14-10.82.3-16.23.43-.57.01-.84.28-1.12.72-2.77,4.53-5.56,9.04-8.33,13.57-.12.19-.18.41-.34.77,5.91-.16,11.68-.32,17.49-.48,3.05-4.96,6.08-9.88,9.2-14.97Z"/>
  <path class="cls-1" d="M63.47,71.28c.22.37.39.66.55.95,2.72,5.03,5.43,10.06,8.18,15.08.35.65.36,1.13,0,1.78-2.75,5.02-5.46,10.05-8.18,15.08-.16.3-.34.59-.56.99-.22-.38-.4-.67-.56-.96-2.74-5.06-5.47-10.12-8.23-15.17-.31-.57-.35-1-.02-1.6,2.8-5.11,5.55-10.23,8.33-15.35.13-.24.28-.46.49-.79ZM63.46,72.81c-.15.23-.28.39-.37.57-2.56,4.73-5.12,9.47-7.7,14.19-.27.49-.21.86.04,1.32,2.56,4.69,5.1,9.4,7.65,14.1.1.19.25.35.42.58.14-.22.24-.36.32-.51,2.56-4.73,5.12-9.47,7.7-14.19.29-.53.23-.92-.04-1.41-2.53-4.63-5.03-9.28-7.54-13.92-.13-.23-.29-.45-.46-.73Z"/>
  <path class="cls-1" d="M121.45,26.8c1.16-1.88,2.21-3.61,3.27-5.32,2.12-3.44,4.24-6.88,6.34-10.33.31-.52.66-.78,1.29-.8,5.96-.14,11.91-.31,17.87-.47.13,0,.27.02.51.04-.13.28-.22.52-.35.74-3.06,4.99-6.13,9.97-9.19,14.97-.29.47-.6.73-1.21.74-5.92.14-11.85.32-17.77.49-.19,0-.39-.03-.77-.05ZM131.93,11.1c-3.05,4.97-6.09,9.91-9.23,15.01.44,0,.67,0,.89,0,5.31-.14,10.61-.3,15.92-.42.58-.01.92-.21,1.23-.71,2.76-4.53,5.55-9.05,8.33-13.57.12-.19.19-.41.36-.78-5.91.16-11.69.32-17.5.48Z"/>
  <path class="cls-1" d="M218.34,26.79c.9-1.47,1.7-2.78,2.51-4.09,2.37-3.85,4.74-7.7,7.09-11.56.31-.51.65-.79,1.29-.81,5.96-.14,11.92-.31,17.87-.47.13,0,.27.02.52.03-.13.28-.21.52-.34.73-3.06,4.99-6.13,9.98-9.19,14.97-.29.47-.59.74-1.2.75-5.96.14-11.91.32-17.87.49-.16,0-.32-.03-.67-.06ZM246.32,10.72c-.33-.03-.56-.07-.78-.07-5.34.14-10.68.29-16.02.43-.51.01-.8.19-1.06.62-2.8,4.59-5.62,9.16-8.44,13.75-.11.18-.16.4-.27.67.31,0,.51,0,.72,0,5.31-.14,10.61-.3,15.92-.42.63-.02.98-.26,1.29-.78,2.73-4.47,5.48-8.93,8.22-13.4.14-.22.24-.46.41-.79Z"/>
  <path class="cls-1" d="M73.03,65.71c6.5.18,12.86.35,19.26.53,3.34,5.44,6.67,10.86,10.08,16.41-.44.02-.69.05-.95.04-5.82-.15-11.64-.31-17.46-.46-.54-.01-.95-.12-1.27-.65-3.13-5.15-6.3-10.28-9.46-15.41-.05-.08-.08-.18-.2-.46ZM74.4,66.58c.08.17.13.33.22.46,2.83,4.61,5.67,9.22,8.49,13.84.29.48.65.6,1.17.61,5.27.13,10.55.28,15.82.43.26,0,.52-.03.89-.05-.19-.35-.31-.62-.47-.88-2.69-4.38-5.4-8.74-8.06-13.14-.43-.71-.91-.97-1.71-.98-4.15-.07-8.29-.2-12.43-.29-1.26-.03-2.53,0-3.92,0Z"/>
  <path class="cls-1" d="M53.92,65.77c-.21.36-.34.59-.48.81-3.03,4.93-6.07,9.86-9.08,14.8-.33.54-.67.85-1.36.87-5.86.13-11.71.3-17.57.45-.23,0-.46-.02-.8-.04.18-.35.3-.62.45-.87,3.03-4.93,6.06-9.86,9.08-14.8.28-.45.54-.77,1.18-.78,5.99-.13,11.99-.31,17.98-.48.13,0,.27.02.59.04ZM25.87,81.93c.45,0,.71,0,.98,0,5.24-.14,10.48-.3,15.72-.41.69-.02,1.04-.28,1.37-.83,2.69-4.42,5.41-8.82,8.11-13.23.17-.28.31-.58.54-.98-.41,0-.68,0-.94,0-5.24.14-10.48.3-15.72.42-.67.02-1.04.27-1.38.83-2.72,4.48-5.48,8.93-8.22,13.4-.12.2-.23.41-.46.81Z"/>
  <path class="cls-1" d="M247.7,54.82c-2.38-.05-4.57-.09-6.76-.15-3.9-.11-7.81-.24-11.71-.34-.57-.01-.93-.18-1.24-.69-3.07-5.03-6.16-10.04-9.24-15.06-.12-.19-.2-.41-.35-.73.46,0,.79,0,1.12,0,5.72.15,11.44.31,17.16.45.64.01,1.06.19,1.41.77,3.06,5.03,6.16,10.04,9.24,15.06.1.17.19.34.37.68ZM246.35,54.08c-.11-.27-.15-.4-.21-.51-2.85-4.64-5.71-9.28-8.55-13.93-.27-.44-.59-.58-1.08-.59-5.38-.13-10.75-.29-16.13-.43-.19,0-.38.04-.68.08.17.3.28.5.4.7,2.76,4.5,5.53,8.98,8.27,13.49.35.58.76.76,1.41.78,5.21.12,10.41.27,15.62.42.27,0,.54,0,.96,0Z"/>
  <path class="cls-1" d="M53.88,166.46c-.25.04-.38.07-.5.07-6.03-.17-12.05-.35-18.08-.48-.67-.02-.88-.39-1.15-.83-2.33-3.79-4.66-7.59-6.99-11.38-.66-1.08-1.33-2.16-1.99-3.24-.17-.28-.33-.58-.55-.99.4-.02.69-.06.98-.05,5.79.15,11.57.31,17.36.46.6.01,1,.18,1.33.73,3.1,5.09,6.23,10.16,9.35,15.23.07.12.12.24.25.48ZM52.55,165.75c-.1-.23-.14-.39-.22-.52-2.85-4.64-5.7-9.28-8.54-13.93-.25-.4-.55-.53-1-.55-5.38-.14-10.76-.29-16.13-.43-.21,0-.42.06-.72.1.21.36.35.63.51.89,2.6,4.23,5.2,8.47,7.81,12.69.94,1.52.44,1.3,2.41,1.36,4.66.14,9.32.26,13.97.39.61.02,1.21,0,1.92,0Z"/>
  <path class="cls-1" d="M150.8,166.54c-6.53-.18-12.89-.36-19.27-.54-3.35-5.45-6.67-10.86-10.11-16.45.57,0,.94,0,1.3,0,5.68.15,11.37.31,17.05.46.57.01,1.01.07,1.37.66,3.11,5.12,6.26,10.22,9.4,15.32.07.11.11.24.26.54ZM122.84,150.45c.13.23.21.41.32.57,2.78,4.53,5.57,9.04,8.33,13.58.32.53.7.74,1.31.76,5.28.12,10.55.28,15.83.42.25,0,.5-.04.83-.06-.13-.26-.19-.41-.28-.55-2.81-4.58-5.64-9.16-8.43-13.76-.32-.52-.69-.65-1.25-.67-3.42-.08-6.85-.22-10.28-.29-2.08-.05-4.17,0-6.38,0Z"/>
  <path class="cls-1" d="M169.89,166.47c1.55-2.52,3-4.88,4.45-7.24,1.74-2.83,3.49-5.65,5.21-8.49.27-.45.56-.71,1.12-.72,6.03-.14,12.05-.31,18.08-.46.1,0,.2.03.4.06-.12.27-.2.51-.33.73-3.06,4.99-6.14,9.97-9.19,14.97-.29.48-.61.71-1.21.73-5.92.14-11.85.32-17.77.48-.2,0-.39-.03-.76-.05ZM171.23,165.78c.42,0,.71,0,1.01,0,5.21-.14,10.41-.3,15.62-.42.66-.02,1.05-.24,1.39-.81,2.71-4.45,5.44-8.88,8.17-13.31.15-.25.28-.52.46-.87-.37-.02-.64-.05-.9-.04-5.27.14-10.55.3-15.82.42-.59.01-.92.22-1.22.71-2.75,4.51-5.52,8.99-8.28,13.49-.14.22-.24.47-.43.83Z"/>
  <path class="cls-1" d="M247.66,166.47c-.29.03-.49.06-.68.06-5.92-.16-11.85-.34-17.77-.49-.52-.01-.87-.13-1.17-.62-3.12-5.12-6.27-10.22-9.4-15.32-.07-.11-.11-.24-.21-.45.28-.04.5-.09.71-.08,5.89.15,11.78.31,17.67.46.51.01.89.12,1.18.62,3.14,5.14,6.3,10.27,9.46,15.41.06.11.11.22.21.43ZM219.69,150.32c.14.3.18.42.25.54,2.83,4.61,5.68,9.22,8.49,13.84.32.53.72.64,1.27.65,5.28.14,10.55.29,15.83.43.25,0,.5-.04.82-.07-.13-.25-.2-.41-.28-.55-2.81-4.58-5.64-9.16-8.43-13.76-.32-.53-.71-.64-1.26-.65-5.24-.13-10.48-.28-15.72-.42-.27,0-.54,0-.96,0Z"/>
  <path class="cls-1" d="M73.03,278.17c.18-.32.3-.56.44-.78,3.03-4.93,6.07-9.86,9.08-14.8.35-.58.73-.87,1.45-.89,5.75-.12,11.51-.29,17.26-.45.3,0,.6,0,1.03,0-.16.34-.25.59-.38.8-3.04,4.96-6.1,9.92-9.13,14.89-.34.56-.72.78-1.39.79-5.86.14-11.71.31-17.56.48-.23,0-.45-.03-.8-.05ZM101.05,262.07c-.4-.02-.64-.05-.87-.05-5.31.14-10.62.3-15.93.42-.6.01-.92.25-1.21.73-2.75,4.5-5.52,8.99-8.28,13.49-.14.22-.23.47-.39.78.3.02.5.04.69.04,5.34-.14,10.69-.3,16.03-.42.66-.01.97-.32,1.27-.83,2.59-4.24,5.2-8.47,7.8-12.7.27-.43.52-.87.88-1.46Z"/>
  <path class="cls-1" d="M150.77,278.18c-.3.02-.49.06-.68.05-5.92-.16-11.85-.34-17.77-.49-.53-.01-.87-.14-1.17-.62-3.1-5.09-6.23-10.16-9.35-15.23-.09-.14-.15-.29-.27-.54.29-.04.51-.09.73-.08,5.89.15,11.78.31,17.67.46.51.01.88.13,1.18.62,3.14,5.14,6.3,10.28,9.46,15.41.07.11.11.22.2.42ZM122.81,262.09c.14.26.22.44.32.61,2.8,4.55,5.6,9.1,8.38,13.66.31.51.67.68,1.25.7,5.34.13,10.69.29,16.03.43.19,0,.38-.03.6-.04-.05-.18-.05-.29-.1-.37-2.88-4.7-5.77-9.4-8.65-14.11-.26-.42-.58-.5-1.02-.51-5.34-.14-10.69-.29-16.03-.43-.22,0-.45.04-.78.07Z"/>
  <path class="cls-1" d="M150.79,121.62c-.25.43-.41.72-.58,1.01-2.97,4.84-5.97,9.68-8.91,14.54-.41.68-.87.89-1.64.91-5.75.13-11.5.31-17.25.47-.26,0-.52-.02-.9-.04.19-.36.32-.62.47-.87,3.03-4.93,6.07-9.86,9.08-14.8.32-.52.67-.78,1.3-.79,5.92-.14,11.85-.31,17.77-.47.17,0,.33.02.67.04ZM149.41,122.43c-.26-.04-.42-.08-.57-.08-5.44.14-10.89.3-16.33.43-.5.01-.73.26-.95.63-2.81,4.58-5.63,9.16-8.44,13.74-.11.18-.16.4-.26.66.31,0,.52,0,.72,0,5.31-.14,10.61-.3,15.92-.42.64-.02.97-.27,1.29-.79,2.73-4.47,5.48-8.93,8.22-13.4.13-.22.24-.46.4-.78Z"/>
  <path class="cls-1" d="M218.4,261.26c.46,0,.79,0,1.12,0,5.72.15,11.44.31,17.16.46.57.02,1.01.09,1.36.68,3.11,5.12,6.26,10.22,9.4,15.32.07.11.11.23.21.44-.29.03-.52.07-.74.06-5.85-.16-11.71-.34-17.56-.48-.59-.01-1-.12-1.34-.68-3.06-5.03-6.16-10.04-9.24-15.06-.12-.19-.2-.41-.35-.74ZM219.7,262.03c.13.29.17.41.24.53,2.83,4.61,5.68,9.22,8.49,13.84.32.53.71.65,1.26.66,5.27.13,10.55.29,15.83.43.25,0,.5-.04.83-.07-.13-.25-.19-.41-.28-.55-2.81-4.58-5.64-9.16-8.43-13.76-.32-.52-.7-.64-1.25-.66-5.21-.13-10.41-.28-15.62-.42-.3,0-.61,0-1.06,0Z"/>
  <path class="cls-1" d="M121.53,37.88c.89,0,1.64-.02,2.39,0,5.24.14,10.48.3,15.72.41.82.02,1.28.31,1.7,1,2.99,4.92,6.01,9.81,9.03,14.71.12.2.24.41.4.71-.27.04-.49.11-.7.1-5.92-.16-11.85-.33-17.77-.49-.47-.01-.82-.09-1.1-.55-3.14-5.14-6.3-10.27-9.46-15.41-.07-.11-.1-.24-.21-.49ZM122.8,38.62c.14.3.19.43.26.54,2.83,4.61,5.68,9.22,8.5,13.84.29.48.64.63,1.17.65,5.34.13,10.69.29,16.03.43.21,0,.42-.05.69-.09-.1-.21-.15-.34-.22-.46-2.83-4.61-5.68-9.22-8.49-13.84-.32-.53-.72-.63-1.26-.64-5.21-.13-10.41-.28-15.62-.42-.3,0-.6,0-1.05,0Z"/>
  <path class="cls-1" d="M73,54.82c.23-.4.35-.63.49-.86,3.01-4.9,6.04-9.79,9.02-14.71.4-.67.84-.94,1.63-.96,5.65-.12,11.3-.29,16.95-.44.36,0,.73,0,1.23,0-.2.39-.32.66-.47.91-3.01,4.9-6.03,9.8-9.03,14.71-.35.58-.73.85-1.45.87-5.86.13-11.71.31-17.56.48-.2,0-.4,0-.8,0ZM74.32,54.08c.36,0,.53,0,.7,0,5.34-.14,10.69-.3,16.03-.43.63-.02.98-.26,1.3-.78,2.71-4.45,5.45-8.88,8.17-13.31.16-.25.29-.52.51-.89-.42-.02-.71-.05-1.01-.04-5.24.14-10.48.3-15.72.42-.64.01-.97.27-1.29.78-2.71,4.45-5.44,8.88-8.17,13.31-.16.25-.29.52-.52.95Z"/>
  <path class="cls-1" d="M53.92,54.82c-2.41-.05-4.64-.09-6.86-.15-3.87-.11-7.74-.24-11.61-.33-.57-.01-.93-.18-1.24-.68-3.07-5.03-6.16-10.04-9.24-15.06-.12-.19-.2-.41-.35-.73.46,0,.79,0,1.12,0,5.72.15,11.44.31,17.16.45.64.01,1.05.19,1.41.77,3.06,5.03,6.16,10.04,9.24,15.06.1.17.19.34.38.68ZM25.91,38.62c.14.3.19.43.26.54,2.83,4.61,5.68,9.22,8.5,13.84.29.47.64.63,1.17.65,5.34.13,10.69.29,16.03.43.21,0,.42-.05.69-.09-.1-.21-.15-.34-.22-.46-2.83-4.61-5.68-9.22-8.49-13.84-.32-.53-.72-.63-1.26-.64-5.21-.13-10.41-.28-15.62-.42-.3,0-.6,0-1.05,0Z"/>
  <path class="cls-1" d="M24.58,194.36c.26-.46.42-.75.6-1.04,2.98-4.84,5.96-9.68,8.92-14.53.35-.58.72-.86,1.44-.88,5.82-.13,11.64-.3,17.46-.46.26,0,.52.03.88.05-.15.27-.24.45-.35.61-3.09,5.02-6.18,10.03-9.25,15.06-.32.53-.68.76-1.3.78-5.86.14-11.71.3-17.57.46-.23,0-.46-.02-.86-.04ZM25.94,193.58c.34.02.57.06.8.05,5.31-.14,10.62-.3,15.93-.42.59-.01.92-.23,1.22-.72,2.75-4.5,5.52-8.99,8.28-13.49.14-.22.24-.47.4-.79-.3-.02-.49-.05-.69-.04-5.34.14-10.69.3-16.03.42-.65.01-.97.31-1.28.81-2.71,4.44-5.45,8.87-8.18,13.31-.15.25-.27.52-.45.86Z"/>
  <path class="cls-1" d="M247.71,177.48c-1.94,3.15-3.78,6.16-5.62,9.16-1.31,2.13-2.64,4.25-3.92,6.4-.37.62-.8.9-1.54.91-3.29.05-6.58.16-9.86.25-2.4.06-4.79.13-7.19.2-.34,0-.68,0-1.17,0,.18-.35.29-.62.44-.86,3.04-4.96,6.1-9.92,9.13-14.89.29-.48.61-.72,1.21-.73,5.92-.14,11.85-.32,17.77-.48.2,0,.39.03.75.05ZM246.39,178.17c-.36,0-.53,0-.7,0-5.34.14-10.69.3-16.03.43-.63.02-.98.26-1.3.78-2.75,4.5-5.52,8.99-8.28,13.49-.12.2-.22.4-.4.72.42.02.71.05,1,.04,5.21-.14,10.41-.3,15.62-.41.73-.01,1.1-.3,1.45-.88,2.67-4.39,5.37-8.76,8.06-13.14.17-.28.32-.58.57-1.04Z"/>
  <path class="cls-1" d="M63.48,216.83c-.2-.31-.35-.54-.48-.77-2.79-5.15-5.57-10.3-8.37-15.44-.28-.51-.29-.9,0-1.41,2.82-5.17,5.62-10.36,8.42-15.54.11-.21.26-.39.45-.68.21.37.39.65.55.95,2.72,5.03,5.43,10.06,8.18,15.08.36.65.35,1.13,0,1.78-2.75,5.01-5.46,10.05-8.18,15.08-.16.3-.34.58-.55.95ZM63.45,215.32c.16-.23.25-.33.31-.45,2.6-4.79,5.18-9.59,7.79-14.37.28-.51.16-.87-.08-1.32-2.52-4.64-5.03-9.28-7.54-13.92-.13-.24-.29-.46-.48-.77-.21.37-.39.65-.55.95-2.45,4.52-4.88,9.05-7.36,13.55-.39.7-.34,1.21.03,1.88,2.48,4.51,4.91,9.03,7.36,13.55.15.27.31.53.53.9Z"/>
  <path class="cls-1" d="M160.35,216.86c-.22-.39-.4-.68-.56-.97-2.72-5.03-5.43-10.06-8.18-15.08-.35-.64-.37-1.13,0-1.78,2.75-5.01,5.46-10.05,8.18-15.08.16-.29.33-.58.57-.99.23.4.41.69.57.98,2.72,5.03,5.43,10.06,8.18,15.08.36.65.35,1.13,0,1.78-2.75,5.01-5.46,10.05-8.18,15.08-.16.3-.34.59-.56.98ZM160.36,184.48c-.17.26-.27.39-.35.54-2.58,4.76-5.15,9.53-7.75,14.28-.27.5-.18.87.07,1.32,2.54,4.66,5.06,9.34,7.59,14.01.11.21.25.4.43.68.2-.32.36-.57.51-.83,2.48-4.58,4.94-9.17,7.45-13.74.34-.62.32-1.08-.02-1.69-2.49-4.54-4.94-9.1-7.4-13.65-.15-.27-.31-.53-.54-.93Z"/>
  <path class="cls-1" d="M53.91,110.67c-.47,0-.8,0-1.12,0-5.72-.15-11.44-.31-17.15-.46-.62-.02-1.07-.13-1.44-.73-3.08-5.06-6.19-10.1-9.29-15.15-.09-.14-.15-.29-.28-.54.33-.03.58-.08.83-.08,5.82.16,11.64.34,17.46.48.65.02,1.05.18,1.4.77,3,4.95,6.05,9.87,9.08,14.8.16.25.29.52.51.92ZM25.83,94.47c3.13,5.1,6.16,10.02,9.16,14.9,2.67.34,16.62.62,17.49.34-.15-.27-.29-.54-.44-.79-2.69-4.38-5.39-8.74-8.05-13.14-.41-.68-.86-.91-1.64-.92-4.83-.1-9.66-.25-14.48-.38-.61-.02-1.22,0-2.04,0Z"/>
  <path class="cls-1" d="M199.18,261.3c-.16.32-.25.56-.39.78-3.04,4.96-6.1,9.92-9.13,14.89-.31.51-.66.76-1.29.78-5.92.14-11.85.32-17.77.48-.17,0-.34-.01-.61-.03.11-.26.18-.47.29-.65,3.08-5.02,6.17-10.03,9.24-15.06.29-.47.59-.76,1.2-.77,5.92-.14,11.85-.31,17.77-.46.19,0,.39.02.69.04ZM171.23,277.48c.42,0,.71,0,1.01,0,5.21-.14,10.41-.29,15.62-.41.66-.02,1.05-.24,1.39-.81,2.71-4.45,5.44-8.88,8.17-13.31.15-.25.28-.52.46-.87-.37-.02-.63-.05-.9-.04-5.28.14-10.55.3-15.83.42-.59.01-.92.22-1.22.71-2.75,4.51-5.52,8.99-8.28,13.49-.14.22-.24.47-.43.83Z"/>
  <path class="cls-1" d="M218.41,82.65c.19-.36.31-.62.46-.88,3.03-4.93,6.06-9.86,9.08-14.8.28-.46.56-.76,1.19-.77,5.99-.13,11.99-.31,17.98-.48.13,0,.27.02.5.04-.12.25-.19.46-.3.64-3.08,5.02-6.17,10.04-9.25,15.06-.29.48-.6.75-1.2.76-5.92.14-11.85.31-17.77.46-.19,0-.38-.02-.69-.04ZM219.69,81.88c.3.04.44.07.57.06,5.45-.15,10.89-.3,16.34-.44.53-.01.79-.27,1.04-.67,2.79-4.56,5.59-9.11,8.39-13.66.12-.19.18-.41.29-.69-.5,0-.91,0-1.32,0-5.03.13-10.07.29-15.1.39-.78.02-1.22.28-1.63.95-2.66,4.39-5.37,8.76-8.06,13.14-.16.26-.3.52-.52.9Z"/>
  <path class="cls-1" d="M24.52,261.26c.54,0,.87,0,1.2,0,5.72.15,11.44.31,17.15.46.56.02,1.01.07,1.37.66,3.11,5.12,6.26,10.22,9.4,15.33.07.11.11.23.25.51-6.48-.12-12.86-.32-19.27-.52-3.34-5.44-6.67-10.85-10.1-16.43ZM52.56,277.48c-.11-.26-.15-.39-.21-.5-2.85-4.64-5.71-9.28-8.54-13.93-.27-.44-.59-.58-1.08-.59-5.34-.13-10.69-.29-16.03-.43-.22,0-.44.04-.78.07.17.3.28.5.4.7,2.76,4.49,5.53,8.98,8.27,13.49.35.58.77.76,1.41.78,5.1.12,10.21.27,15.31.41.38,0,.75,0,1.26,0Z"/>
  <path class="cls-1" d="M257.23,216.82c-.22-.38-.38-.64-.52-.91-2.74-5.06-5.46-10.12-8.23-15.17-.34-.62-.33-1.08,0-1.69,2.78-5.08,5.52-10.17,8.28-15.26.13-.24.28-.46.47-.78.19.28.35.48.47.71,2.79,5.15,5.57,10.3,8.36,15.45.24.44.38.81.09,1.32-2.89,5.29-5.75,10.59-8.62,15.89-.06.12-.16.22-.31.44ZM257.25,184.53c-.12.17-.22.27-.28.38-2.61,4.82-5.21,9.65-7.84,14.46-.27.49-.12.83.1,1.23,2.55,4.7,5.09,9.4,7.64,14.1.1.19.25.35.41.56.13-.19.21-.3.28-.42,2.58-4.76,5.15-9.53,7.74-14.28.26-.48.27-.84,0-1.32-2.55-4.66-5.07-9.34-7.6-14.01-.12-.23-.28-.44-.46-.71Z"/>
  <path class="cls-1" d="M121.47,194.36c.28-.48.46-.8.65-1.12,2.96-4.81,5.93-9.62,8.86-14.45.38-.63.8-.87,1.54-.89,5.79-.13,11.57-.3,17.36-.46.26,0,.52.02.92.04-.18.3-.29.5-.41.69-3.07,4.99-6.14,9.97-9.19,14.97-.32.52-.66.78-1.29.79-5.86.14-11.71.3-17.57.46-.23,0-.46-.02-.88-.04ZM122.74,193.63c.47,0,.74,0,1,0,5.24-.14,10.48-.3,15.72-.41.68-.02,1.04-.27,1.37-.82,2.69-4.42,5.41-8.82,8.11-13.23.17-.28.31-.58.52-.95-.32-.02-.52-.04-.71-.04-5.34.14-10.69.3-16.03.42-.66.01-.97.32-1.27.82-2.59,4.24-5.2,8.46-7.8,12.7-.27.43-.53.87-.92,1.51Z"/>
  <path class="cls-1" d="M169.92,54.78c.16-.29.25-.47.35-.63,3.08-5.02,6.18-10.03,9.24-15.06.32-.53.68-.76,1.3-.78,5.86-.14,11.71-.3,17.57-.46.23,0,.46.02.8.04-.15.32-.25.56-.38.78-3.04,4.96-6.1,9.92-9.14,14.88-.28.45-.54.77-1.18.79-5.99.13-11.98.32-17.97.49-.13,0-.27-.02-.58-.04ZM171.21,54.08c.36,0,.53,0,.7,0,5.34-.14,10.69-.3,16.03-.43.63-.01.98-.27,1.3-.79,2.73-4.47,5.48-8.94,8.22-13.4.14-.22.25-.46.43-.79-.37-.02-.63-.06-.89-.05-5.28.14-10.55.3-15.83.42-.64.01-.97.28-1.28.79-2.71,4.45-5.45,8.88-8.17,13.31-.16.26-.29.52-.51.94Z"/>
  <path class="cls-1" d="M169.95,65.78c.26-.02.42-.06.59-.05,5.99.17,11.98.34,17.98.49.45.01.75.14,1,.55,3.14,5.14,6.3,10.28,9.46,15.41.07.11.11.24.2.46-.36.02-.65.06-.94.05-5.79-.15-11.57-.31-17.36-.46-.54-.01-.95-.1-1.28-.63-3.15-5.18-6.34-10.34-9.51-15.5-.04-.06-.05-.12-.14-.32ZM197.88,81.87c-.18-.34-.3-.61-.46-.86-2.71-4.41-5.43-8.8-8.11-13.22-.38-.63-.82-.88-1.55-.9-5.14-.12-10.27-.27-15.41-.41-.33,0-.65,0-1.07,0,.09.24.11.37.18.48,2.87,4.67,5.74,9.34,8.6,14.01.25.41.57.52,1.01.53,5.38.14,10.75.29,16.13.44.19,0,.39-.04.68-.06Z"/>
  <path class="cls-1" d="M73.01,177.44c2.48.05,4.77.1,7.06.16,3.77.1,7.53.24,11.3.32.65.01,1.05.19,1.4.77,3.01,4.95,6.04,9.87,9.07,14.8.15.25.27.52.48.91-.47,0-.8,0-1.13,0-5.72-.15-11.44-.31-17.16-.46-.57-.01-1.01-.09-1.36-.67-3.11-5.12-6.26-10.22-9.4-15.33-.07-.11-.12-.23-.26-.5ZM74.34,178.19c.16.32.24.51.34.68,2.8,4.55,5.61,9.1,8.38,13.66.31.51.67.67,1.24.68,5.27.13,10.55.28,15.82.42.26,0,.51-.04.89-.07-.19-.33-.31-.57-.45-.79-2.73-4.43-5.47-8.86-8.17-13.31-.39-.65-.85-.85-1.57-.87-5.07-.11-10.14-.27-15.21-.4-.38,0-.75,0-1.29,0Z"/>
  <path class="cls-1" d="M121.49,82.66c.23-.43.38-.72.56-1.01,2.99-4.87,6-9.74,8.97-14.62.37-.61.78-.81,1.47-.82,5.79-.13,11.57-.31,17.36-.47.27,0,.53,0,.94,0-.17.31-.26.51-.38.7-3.07,4.99-6.14,9.97-9.19,14.97-.31.51-.63.81-1.28.82-5.92.13-11.85.3-17.77.46-.17,0-.34-.02-.68-.04ZM149.49,66.51c-.32-.02-.49-.04-.66-.04-5.38.14-10.75.3-16.13.43-.6.01-.92.27-1.21.75-2.77,4.53-5.56,9.05-8.33,13.57-.12.19-.18.41-.31.7.44,0,.78,0,1.12,0,5.1-.14,10.2-.3,15.31-.4.78-.02,1.22-.27,1.63-.94,2.64-4.37,5.33-8.7,8-13.05.18-.29.33-.59.58-1.03Z"/>
  <path class="cls-1" d="M102.38,149.6c-3.41,5.55-6.74,10.96-10.08,16.41-6.39.18-12.75.35-19.24.54.17-.35.26-.58.39-.8,3.04-4.96,6.1-9.91,9.13-14.88.33-.55.69-.83,1.37-.85,5.82-.13,11.64-.3,17.46-.45.26,0,.52.02.97.04ZM101.03,150.37c-.31-.03-.45-.06-.58-.06-5.45.15-10.89.31-16.34.43-.6.01-.83.36-1.08.77-2.74,4.47-5.49,8.93-8.23,13.4-.15.24-.26.51-.43.83.27.02.4.04.54.04,5.41-.15,10.82-.3,16.24-.43.62-.01.91-.3,1.2-.77,2.75-4.5,5.52-8.99,8.28-13.49.12-.2.23-.4.41-.72Z"/>
  <path class="cls-1" d="M160.34,105.12c-.22-.38-.38-.63-.52-.9-2.74-5.06-5.46-10.12-8.23-15.17-.34-.62-.34-1.07,0-1.69,2.78-5.08,5.52-10.17,8.28-15.26.13-.24.28-.46.47-.79.19.29.35.48.47.71,2.79,5.15,5.57,10.3,8.36,15.45.24.44.38.81.1,1.32-2.89,5.29-5.75,10.59-8.62,15.89-.06.12-.15.22-.31.44ZM160.35,103.6c.15-.22.25-.36.33-.5,2.58-4.76,5.15-9.53,7.75-14.28.27-.5.2-.86-.05-1.32-2.54-4.66-5.06-9.34-7.59-14.01-.12-.21-.28-.41-.47-.67-.2.33-.34.56-.47.8-2.48,4.58-4.95,9.17-7.45,13.74-.34.61-.34,1.07,0,1.69,2.51,4.57,4.97,9.16,7.45,13.74.14.26.31.5.5.82Z"/>
  <path class="cls-1" d="M257.23,105.12c-.22-.37-.38-.63-.52-.9-2.74-5.06-5.47-10.12-8.23-15.17-.34-.61-.34-1.07,0-1.69,2.78-5.08,5.52-10.17,8.28-15.26.13-.24.28-.46.47-.79.19.28.35.48.47.71,2.79,5.15,5.57,10.3,8.36,15.45.24.44.38.81.1,1.32-2.89,5.29-5.75,10.59-8.62,15.89-.06.12-.15.22-.31.44ZM257.26,72.78c-.16.24-.26.38-.34.52-2.58,4.76-5.15,9.53-7.75,14.28-.27.5-.2.87.05,1.32,2.56,4.7,5.1,9.4,7.65,14.1.1.19.25.35.42.57.18-.3.31-.5.42-.71,2.5-4.61,4.98-9.23,7.5-13.83.34-.62.33-1.07,0-1.69-2.5-4.57-4.97-9.16-7.45-13.74-.13-.24-.28-.47-.49-.84Z"/>
  <path class="cls-1" d="M199.2,194.36c-1.02,0-1.9.02-2.79,0-5.1-.14-10.2-.3-15.31-.41-.8-.02-1.29-.26-1.72-.97-2.94-4.87-5.94-9.7-8.91-14.54-.17-.28-.34-.57-.56-.94.28-.03.44-.07.6-.07,5.99.16,11.98.34,17.98.49.5.01.8.19,1.06.62,3.12,5.12,6.27,10.22,9.4,15.32.07.11.11.24.24.5ZM171.24,178.19c.16.31.23.5.33.67,2.8,4.55,5.6,9.1,8.38,13.66.31.51.67.67,1.24.69,5.27.13,10.55.28,15.82.42.26,0,.51-.04.89-.06-.21-.36-.35-.63-.5-.88-2.69-4.38-5.4-8.74-8.06-13.14-.43-.72-.93-.95-1.73-.96-4.9-.11-9.79-.26-14.69-.39-.51-.01-1.02,0-1.7,0Z"/>
  <path class="cls-1" d="M111.94,133.04c-.26-.42-.43-.67-.57-.93-2.74-5.06-5.47-10.13-8.23-15.18-.29-.52-.37-.94-.06-1.5,2.81-5.14,5.59-10.3,8.38-15.45.11-.2.24-.39.47-.77,3.09,5.71,6.12,11.29,9.16,16.91-3.02,5.59-6.04,11.16-9.15,16.91ZM103.57,116.06c.9,2.12,7.86,14.77,8.45,15.33,2.76-5.1,5.51-10.18,8.26-15.27-2.78-5.13-5.52-10.2-8.37-15.46-2.86,5.28-5.6,10.35-8.34,15.4Z"/>
  <path class="cls-1" d="M199.62,116.13c3.03-5.59,6.04-11.16,9.11-16.84.2.24.36.39.46.58,2.83,5.21,5.64,10.43,8.47,15.63.21.38.3.7.06,1.13-2.9,5.32-5.78,10.66-8.67,15.99-.04.08-.13.14-.31.34-3.06-5.65-6.08-11.23-9.12-16.84ZM208.8,131.59c2.86-5.29,5.62-10.39,8.35-15.43-1.77-3.71-7.8-14.65-8.46-15.31-2.76,5.1-5.51,10.18-8.26,15.28,2.77,5.12,5.52,10.19,8.37,15.46Z"/>
  <path class="cls-1" d="M15.02,99.16c3.12,5.76,6.13,11.32,9.18,16.97-3.01,5.57-6.04,11.16-9.08,16.77-.61-.61-8.18-14.39-9.26-16.83,3-5.54,6.02-11.13,9.15-16.91ZM23.39,116.13c-2.77-5.12-5.52-10.2-8.37-15.46-2.85,5.27-5.6,10.35-8.33,15.4.85,2.01,7.85,14.76,8.44,15.34,2.75-5.07,5.48-10.13,8.26-15.27Z"/>
  <path class="cls-1" d="M208.84,210.93c3.11,5.74,6.12,11.31,9.14,16.9-3.03,5.6-6.05,11.17-9.13,16.86-.22-.31-.38-.5-.5-.72-2.79-5.15-5.58-10.3-8.38-15.45-.25-.46-.31-.82-.04-1.32,2.84-5.2,5.65-10.42,8.47-15.63.09-.17.21-.33.43-.64ZM208.8,243.3c2.86-5.29,5.61-10.37,8.34-15.42-1.38-3.06-7.88-14.81-8.47-15.29-2.75,5.09-5.5,10.17-8.24,15.24,2.78,5.13,5.51,10.19,8.37,15.46Z"/>
  <path class="cls-1" d="M111.97,210.98c3.07,5.68,6.09,11.25,9.12,16.85-3.02,5.59-6.04,11.16-9.11,16.83-.2-.24-.36-.39-.46-.58-2.83-5.21-5.64-10.42-8.47-15.63-.21-.38-.3-.7-.06-1.13,2.9-5.32,5.78-10.66,8.67-15.99.04-.08.13-.15.31-.35ZM103.57,227.77c1.07,2.44,7.86,14.77,8.46,15.32,2.76-5.1,5.51-10.18,8.26-15.26-2.78-5.13-5.53-10.21-8.37-15.46-2.86,5.28-5.61,10.36-8.34,15.41Z"/>
  <path class="cls-1" d="M14.97,244.71c-3.09-5.71-6.11-11.29-9.13-16.88,3.03-5.59,6.04-11.16,9.1-16.82.18.2.34.32.42.48,2.84,5.24,5.67,10.49,8.52,15.73.21.38.3.7.06,1.13-2.89,5.3-5.75,10.6-8.62,15.9-.06.11-.15.21-.34.46ZM15.02,243.3c2.88-5.32,5.63-10.4,8.37-15.47-2.78-5.14-5.53-10.21-8.37-15.46-2.86,5.29-5.61,10.37-8.37,15.47,2.76,5.11,5.51,10.19,8.37,15.47Z"/>
  <path class="cls-1" d="M15.04,266.82c.23.39.39.65.53.92,2.72,5.03,5.43,10.07,8.18,15.09.33.61.38,1.09,0,1.69-.61.99-1.13,2.04-1.68,3.06-.2.38-.44.6-.96.29.58-1.08,1.12-2.19,1.76-3.24.4-.66.41-1.18.03-1.88-2.48-4.5-4.91-9.03-7.35-13.55-.14-.26-.31-.51-.53-.87-.2.3-.36.5-.48.72-2.5,4.61-4.98,9.22-7.5,13.82-.32.59-.33,1.04.01,1.6.52.85.96,1.74,1.43,2.61.14.26.25.53.38.81-.46.22-.71.09-.9-.27-.63-1.18-1.25-2.36-1.92-3.52-.29-.5,0-.85.2-1.23,1.84-3.41,3.68-6.81,5.52-10.21.91-1.69,1.83-3.38,2.74-5.06.14-.25.31-.48.52-.8Z"/>
  <path class="cls-1" d="M111.93,268.29c-.25.41-.42.66-.57.93-2.45,4.52-4.87,9.05-7.35,13.55-.38.7-.38,1.21.03,1.88.64,1.04,1.18,2.15,1.76,3.24-.44.26-.71.17-.91-.2-.65-1.21-1.3-2.42-1.96-3.61-.23-.41-.02-.72.16-1.05.83-1.54,1.66-3.07,2.49-4.61,1.91-3.53,3.82-7.05,5.72-10.57.16-.3.34-.59.56-.98.18.23.34.39.44.58,2.81,5.18,5.61,10.37,8.43,15.54.28.51.29.91,0,1.42-.61,1.03-1.16,2.1-1.72,3.16-.2.37-.42.63-.98.35.46-.88.93-1.73,1.38-2.6,1.06-2.04,1.08-1.22.01-3.21-2.26-4.23-4.56-8.44-6.84-12.66-.18-.33-.37-.65-.64-1.15Z"/>
  <path class="cls-1" d="M208.81,266.78c.23.41.38.64.5.88,2.74,5.06,5.47,10.13,8.23,15.18.34.62.36,1.09,0,1.69-.59.96-1.09,1.98-1.62,2.98-.19.35-.38.67-.94.43.07-.2.12-.42.22-.61.55-1.03,1.1-2.06,1.66-3.07.2-.35.28-.65.07-1.05-2.64-4.84-5.26-9.7-7.89-14.54-.05-.09-.09-.18-.2-.38-.23.36-.39.57-.51.8-2.5,4.61-4.98,9.22-7.5,13.82-.33.59-.3,1.04.03,1.6.64,1.09,1.21,2.21,1.84,3.37-.41.24-.69.22-.89-.16-.67-1.23-1.35-2.46-1.99-3.71-.1-.2-.04-.53.05-.76.18-.44.44-.85.67-1.27,2.56-4.73,5.12-9.46,7.68-14.19.16-.29.34-.57.6-1.01Z"/>
</svg>